<?xml version="1.0" encoding="utf-8"?>
<!-- Generator: Adobe Illustrator 16.0.0, SVG Export Plug-In . SVG Version: 6.00 Build 0)  -->
<!DOCTYPE svg PUBLIC "-//W3C//DTD SVG 1.1//EN" "http://www.w3.org/Graphics/SVG/1.1/DTD/svg11.dtd">
<svg version="1.1" id="Layer_1" xmlns="http://www.w3.org/2000/svg" xmlns:xlink="http://www.w3.org/1999/xlink" x="0px" y="0px"
	 width="247px" height="179px" viewBox="0 0 247 179" enable-background="new 0 0 247 179" xml:space="preserve">
<path opacity="0.5" fill="#5A5B5F" d="M161.533,61.056c0.153,1.486,0.235,2.996,0.235,4.521c0,16.19-8.762,31.015-22.517,38.219
	c-0.692-1.106-1.529-2.77-2.144-3.994c-3.09-6.149-7.762-15.44-18.564-15.44l-0.344,0.002c-10.8,0.213-16.027,9.398-19.486,15.476
	c-0.627,1.104-1.464,2.573-2.17,3.63c-0.334-0.195-0.664-0.396-0.99-0.594c-13.151-7.989-21-21.933-21-37.299
	c0-2.084,0.197-4.121,0.482-6.129c-1.976,4.061-8.281,18.775-5.844,36.668c4.694,7.513,11.139,13.972,19.06,18.783
	c1.19,0.724,2.479,1.488,3.932,2.182c1.659,0.791,3.363,1.191,5.067,1.191h0.002c7.158-0.003,10.777-6.363,13.687-11.474
	c2.77-4.868,4.932-8.319,7.604-8.372c1.976,0,3.73,3.19,5.998,7.695c2.611,5.195,6.188,12.313,13.969,12.313
	c1.858,0,3.748-0.452,5.612-1.348c9.208-4.407,16.835-11.344,22.311-19.778C169.034,80.761,164.048,66.749,161.533,61.056"/>
<path opacity="0.5" fill="#5A5B5F" d="M118.159,7.902c-31.801,0-57.674,25.874-57.674,57.675c0,11.064,3.096,21.557,8.707,30.538
	c-2.437-17.892,3.868-32.607,5.844-36.667c2.994-21.147,21.165-37.48,43.123-37.48c22.519,0,41.104,17.159,43.374,39.087
	c2.514,5.694,7.501,19.705,4.901,36.254c5.984-9.211,9.401-20.211,9.401-31.732C175.836,33.776,149.962,7.902,118.159,7.902"/>
<rect x="-355" y="-181" fill="none" width="960" height="560"/>
<g opacity="0.5">
	<defs>
		<path id="SVGID_1_" opacity="0.5" d="M69.253,96.002c4.694,7.513,11.139,13.972,19.061,18.784l7.301-12.024
			c-13.15-7.989-21.001-21.933-21.001-37.298c0-2.086,0.198-4.121,0.482-6.13C73.12,63.394,66.816,78.109,69.253,96.002"/>
	</defs>
	<linearGradient id="SVGID_2_" gradientUnits="userSpaceOnUse" x1="68.7007" y1="87.0601" x2="95.6152" y2="87.0601">
		<stop  offset="0" style="stop-color:#565759"/>
		<stop  offset="0.2238" style="stop-color:#5B5C5E"/>
		<stop  offset="0.5065" style="stop-color:#6A6C6E"/>
		<stop  offset="0.8195" style="stop-color:#838588"/>
		<stop  offset="1" style="stop-color:#95979A"/>
	</linearGradient>
	<use xlink:href="#SVGID_1_"  overflow="visible" fill="url(#SVGID_2_)"/>
	<clipPath id="SVGID_3_">
		<use xlink:href="#SVGID_1_"  overflow="visible"/>
	</clipPath>
	
		<linearGradient id="SVGID_4_" gradientUnits="userSpaceOnUse" x1="-355" y1="378.9883" x2="-354" y2="378.9883" gradientTransform="matrix(-21.2006 -20.2649 -20.2649 21.2006 251.2788 -15126.3223)">
		<stop  offset="0" style="stop-color:#565759"/>
		<stop  offset="0.2238" style="stop-color:#5B5C5E"/>
		<stop  offset="0.5065" style="stop-color:#6A6C6E"/>
		<stop  offset="0.8195" style="stop-color:#838588"/>
		<stop  offset="1" style="stop-color:#95979A"/>
	</linearGradient>
	<polygon clip-path="url(#SVGID_3_)" fill="url(#SVGID_4_)" points="81.865,129.171 39.118,88.311 80.566,44.949 123.312,85.809 	
		"/>
</g>
<g opacity="0.5">
	<defs>
		<rect id="SVGID_5_" x="-355" y="-181" opacity="0.5" width="960" height="560"/>
	</defs>
	<clipPath id="SVGID_6_">
		<use xlink:href="#SVGID_5_"  overflow="visible"/>
	</clipPath>
	<polygon clip-path="url(#SVGID_6_)" fill="#5A5B5F" points="19.02,170.176 8.318,125.352 17.583,125.352 24.339,156.142 
		32.536,125.352 43.296,125.352 51.156,156.661 58.036,125.352 67.146,125.352 56.262,170.176 46.661,170.176 37.732,136.665 
		28.834,170.176 	"/>
	<path clip-path="url(#SVGID_6_)" fill="#5A5B5F" d="M71.152,125.352h8.592v7.949h-8.592V125.352z M71.152,137.704h8.592v32.472
		h-8.592V137.704z"/>
	<path clip-path="url(#SVGID_6_)" fill="#5A5B5F" d="M85.523,160.911l8.621-1.314c0.367,1.672,1.111,2.94,2.232,3.807
		c1.122,0.866,2.692,1.3,4.71,1.3c2.221,0,3.892-0.408,5.014-1.224c0.754-0.57,1.132-1.335,1.132-2.293
		c0-0.652-0.205-1.192-0.612-1.62c-0.429-0.408-1.386-0.785-2.874-1.132c-6.931-1.528-11.325-2.925-13.178-4.188
		c-2.568-1.753-3.854-4.19-3.854-7.308c0-2.813,1.112-5.178,3.333-7.094c2.222-1.916,5.667-2.874,10.335-2.874
		c4.444,0,7.746,0.724,9.907,2.17c2.16,1.448,3.648,3.589,4.464,6.422l-8.103,1.498c-0.347-1.264-1.004-2.232-1.972-2.905
		c-0.968-0.672-2.349-1.009-4.143-1.009c-2.262,0-3.883,0.316-4.862,0.948c-0.652,0.448-0.978,1.029-0.978,1.742
		c0,0.612,0.285,1.132,0.856,1.56c0.775,0.571,3.45,1.376,8.027,2.416c4.576,1.039,7.771,2.313,9.586,3.821
		c1.793,1.529,2.689,3.659,2.689,6.391c0,2.977-1.243,5.534-3.729,7.675c-2.488,2.141-6.167,3.21-11.038,3.21
		c-4.424,0-7.924-0.896-10.503-2.69C88.003,166.426,86.318,163.989,85.523,160.911"/>
	<path clip-path="url(#SVGID_6_)" fill="#5A5B5F" d="M129.797,147.61L122,146.204c0.876-3.139,2.385-5.463,4.525-6.971
		c2.14-1.509,5.32-2.263,9.539-2.263c3.833,0,6.686,0.453,8.562,1.36c1.875,0.907,3.194,2.059,3.96,3.455
		c0.764,1.396,1.146,3.96,1.146,7.689l-0.092,10.029c0,2.854,0.137,4.958,0.412,6.313c0.275,1.356,0.79,2.809,1.545,4.357h-8.5
		c-0.225-0.57-0.5-1.417-0.825-2.538c-0.144-0.509-0.245-0.846-0.307-1.009c-1.468,1.427-3.038,2.497-4.709,3.211
		c-1.671,0.713-3.455,1.069-5.351,1.069c-3.343,0-5.978-0.906-7.904-2.72c-1.926-1.815-2.889-4.108-2.889-6.881
		c0-1.834,0.438-3.47,1.315-4.907c0.876-1.438,2.104-2.538,3.683-3.302c1.58-0.765,3.857-1.433,6.834-2.003
		c4.016-0.754,6.799-1.457,8.348-2.11v-0.855c0-1.65-0.408-2.828-1.223-3.532c-0.816-0.704-2.354-1.055-4.617-1.055
		c-1.529,0-2.721,0.301-3.578,0.902C131.021,145.048,130.326,146.102,129.797,147.61 M141.293,154.582
		c-1.101,0.367-2.844,0.806-5.229,1.314c-2.385,0.51-3.944,1.01-4.678,1.498c-1.121,0.796-1.682,1.805-1.682,3.027
		c0,1.203,0.447,2.243,1.346,3.119c0.896,0.876,2.037,1.314,3.424,1.314c1.549,0,3.027-0.509,4.434-1.528
		c1.039-0.774,1.723-1.722,2.049-2.844c0.224-0.734,0.336-2.131,0.336-4.189V154.582z"/>
	<path clip-path="url(#SVGID_6_)" fill="#5A5B5F" d="M157.835,170.176v-44.824h8.592v16.144c2.649-3.016,5.788-4.524,9.417-4.524
		c3.955,0,7.227,1.432,9.814,4.296c2.589,2.863,3.884,6.977,3.884,12.337c0,5.545-1.319,9.815-3.96,12.812
		c-2.64,2.996-5.845,4.494-9.615,4.494c-1.855,0-3.686-0.464-5.488-1.391c-1.805-0.927-3.359-2.298-4.664-4.112v4.77H157.835z
		 M166.365,153.236c0,3.363,0.53,5.851,1.59,7.461c1.488,2.283,3.465,3.425,5.932,3.425c1.896,0,3.512-0.811,4.847-2.431
		c1.335-1.621,2.003-4.174,2.003-7.66c0-3.709-0.673-6.385-2.018-8.025c-1.346-1.641-3.068-2.462-5.168-2.462
		c-2.059,0-3.771,0.801-5.137,2.4C167.049,147.545,166.365,149.976,166.365,153.236"/>
	<rect x="196.452" y="125.352" clip-path="url(#SVGID_6_)" fill="#5A5B5F" width="8.592" height="44.824"/>
	<path clip-path="url(#SVGID_6_)" fill="#5A5B5F" d="M232.654,159.841l8.561,1.438c-1.101,3.139-2.838,5.529-5.213,7.17
		s-5.346,2.461-8.913,2.461c-5.646,0-9.825-1.844-12.536-5.534c-2.141-2.955-3.211-6.686-3.211-11.19
		c0-5.382,1.406-9.596,4.221-12.644c2.812-3.047,6.369-4.569,10.67-4.569c4.832,0,8.643,1.594,11.436,4.784
		s4.128,8.077,4.006,14.661h-21.525c0.061,2.548,0.754,4.53,2.079,5.946c1.325,1.417,2.976,2.125,4.953,2.125
		c1.345,0,2.477-0.366,3.394-1.102C231.492,162.654,232.185,161.472,232.654,159.841 M233.143,151.157
		c-0.061-2.486-0.703-4.377-1.926-5.672c-1.223-1.294-2.711-1.941-4.465-1.941c-1.875,0-3.424,0.684-4.646,2.049
		c-1.223,1.366-1.824,3.221-1.805,5.564H233.143z"/>
</g>
<g opacity="0.5">
	<defs>
		<path id="SVGID_7_" opacity="0.5" d="M161.771,65.464c0,15.365-7.852,29.309-21,37.298l7.301,12.024
			c7.922-4.812,14.365-11.271,19.06-18.784c2.438-17.893-3.867-32.608-5.843-36.668C161.574,61.343,161.771,63.378,161.771,65.464"
			/>
	</defs>
	<clipPath id="SVGID_8_">
		<use xlink:href="#SVGID_7_"  overflow="visible"/>
	</clipPath>
	
		<linearGradient id="SVGID_9_" gradientUnits="userSpaceOnUse" x1="-355" y1="378.9883" x2="-354" y2="378.9883" gradientTransform="matrix(21.2006 -20.2649 20.2649 21.2006 -14.9038 -15126.3223)">
		<stop  offset="0" style="stop-color:#565759"/>
		<stop  offset="0.2238" style="stop-color:#5B5C5E"/>
		<stop  offset="0.5065" style="stop-color:#6A6C6E"/>
		<stop  offset="0.8195" style="stop-color:#838588"/>
		<stop  offset="1" style="stop-color:#95979A"/>
	</linearGradient>
	<polygon clip-path="url(#SVGID_8_)" fill="url(#SVGID_9_)" points="154.521,129.171 197.268,88.311 155.82,44.949 113.073,85.81 	
		"/>
</g>
</svg>
