<?xml version="1.0" encoding="utf-8"?>
<!-- Generator: Adobe Illustrator 16.0.0, SVG Export Plug-In . SVG Version: 6.00 Build 0)  -->
<!DOCTYPE svg PUBLIC "-//W3C//DTD SVG 1.1//EN" "http://www.w3.org/Graphics/SVG/1.1/DTD/svg11.dtd">
<svg version="1.1" id="Layer_1" xmlns="http://www.w3.org/2000/svg" xmlns:xlink="http://www.w3.org/1999/xlink" x="0px" y="0px"
	 width="257px" height="198px" viewBox="0 0 257 198" enable-background="new 0 0 257 198" xml:space="preserve">
<rect x="212.705" y="185.173" fill="#808184" width="36.431" height="0.947"/>
<polygon fill="#808184" points="210.441,188.855 213.43,185.644 210.441,182.433 207.453,185.644 "/>
<rect x="12.367" y="185.684" fill="#808184" width="34.042" height="0.948"/>
<polygon fill="#808184" points="48.673,189.369 45.684,186.154 48.673,182.94 51.66,186.154 "/>
<g>
	<defs>
		<rect id="SVGID_1_" x="-350" y="-178" width="960" height="560"/>
	</defs>
	<clipPath id="SVGID_2_">
		<use xlink:href="#SVGID_1_"  overflow="visible"/>
	</clipPath>
	<path clip-path="url(#SVGID_2_)" fill="#00ADEE" d="M166.533,64.056c0.153,1.486,0.235,2.996,0.235,4.521
		c0,16.19-8.762,31.015-22.517,38.219c-0.692-1.106-1.529-2.77-2.144-3.994c-3.09-6.149-7.762-15.44-18.564-15.44l-0.344,0.002
		c-10.8,0.213-16.027,9.398-19.486,15.476c-0.627,1.104-1.464,2.573-2.17,3.63c-0.334-0.195-0.664-0.396-0.99-0.594
		c-13.151-7.989-21-21.933-21-37.299c0-2.084,0.197-4.121,0.482-6.129c-1.976,4.061-8.281,18.775-5.844,36.668
		c4.694,7.513,11.139,13.972,19.06,18.783c1.19,0.724,2.479,1.488,3.932,2.182c1.659,0.791,3.363,1.191,5.067,1.191h0.002
		c7.158-0.003,10.777-6.363,13.687-11.474c2.77-4.868,4.932-8.319,7.604-8.372c1.976,0,3.73,3.19,5.998,7.695
		c2.611,5.195,6.188,12.313,13.969,12.313c1.858,0,3.748-0.452,5.612-1.348c9.208-4.407,16.835-11.344,22.311-19.778
		C174.034,83.761,169.048,69.749,166.533,64.056"/>
	<path clip-path="url(#SVGID_2_)" fill="#00ADEE" d="M123.159,10.902c-31.801,0-57.674,25.874-57.674,57.675
		c0,11.064,3.096,21.557,8.707,30.538c-2.437-17.892,3.868-32.607,5.844-36.667c2.994-21.147,21.165-37.48,43.123-37.48
		c22.519,0,41.104,17.159,43.374,39.087c2.514,5.694,7.501,19.705,4.901,36.254c5.984-9.211,9.401-20.211,9.401-31.732
		C180.836,36.776,154.962,10.902,123.159,10.902"/>
</g>
<g>
	<defs>
		<path id="SVGID_3_" d="M74.253,99.002c4.694,7.513,11.139,13.972,19.061,18.784l7.301-12.024
			c-13.15-7.989-21.001-21.933-21.001-37.298c0-2.086,0.198-4.121,0.482-6.13C78.12,66.394,71.816,81.109,74.253,99.002"/>
	</defs>
	<clipPath id="SVGID_4_">
		<use xlink:href="#SVGID_3_"  overflow="visible"/>
	</clipPath>
	
		<linearGradient id="SVGID_5_" gradientUnits="userSpaceOnUse" x1="-350" y1="381.9883" x2="-349" y2="381.9883" gradientTransform="matrix(-21.2006 -20.2649 -20.2649 21.2006 423.0762 -15085.5996)">
		<stop  offset="0" style="stop-color:#00ADEE"/>
		<stop  offset="0.1523" style="stop-color:#05AFEE"/>
		<stop  offset="0.3447" style="stop-color:#15B3EF"/>
		<stop  offset="0.5586" style="stop-color:#2FBBF1"/>
		<stop  offset="0.7864" style="stop-color:#53C6F3"/>
		<stop  offset="1" style="stop-color:#7BD2F6"/>
	</linearGradient>
	<polygon clip-path="url(#SVGID_4_)" fill="url(#SVGID_5_)" points="86.865,132.171 44.118,91.311 85.566,47.949 128.312,88.809 	
		"/>
</g>
<g>
	<defs>
		<rect id="SVGID_6_" x="-350" y="-178" width="960" height="560"/>
	</defs>
	<clipPath id="SVGID_7_">
		<use xlink:href="#SVGID_6_"  overflow="visible"/>
	</clipPath>
	<polygon clip-path="url(#SVGID_7_)" fill="#00ADEE" points="24.02,173.176 13.318,128.352 22.583,128.352 29.339,159.142 
		37.536,128.352 48.296,128.352 56.156,159.661 63.036,128.352 72.146,128.352 61.262,173.176 51.661,173.176 42.732,139.665 
		33.834,173.176 	"/>
	<path clip-path="url(#SVGID_7_)" fill="#00ADEE" d="M76.152,128.352h8.592v7.949h-8.592V128.352z M76.152,140.704h8.592v32.472
		h-8.592V140.704z"/>
	<path clip-path="url(#SVGID_7_)" fill="#00ADEE" d="M90.523,163.911l8.621-1.314c0.367,1.672,1.111,2.94,2.232,3.807
		c1.122,0.866,2.692,1.3,4.71,1.3c2.221,0,3.892-0.408,5.014-1.224c0.754-0.57,1.132-1.335,1.132-2.293
		c0-0.652-0.205-1.192-0.612-1.62c-0.429-0.408-1.386-0.785-2.874-1.132c-6.931-1.528-11.325-2.925-13.178-4.188
		c-2.568-1.753-3.854-4.19-3.854-7.308c0-2.813,1.112-5.178,3.333-7.094c2.222-1.916,5.667-2.874,10.335-2.874
		c4.444,0,7.746,0.724,9.907,2.17c2.16,1.448,3.648,3.589,4.464,6.422l-8.103,1.498c-0.347-1.264-1.004-2.232-1.972-2.905
		c-0.968-0.672-2.349-1.009-4.143-1.009c-2.262,0-3.883,0.316-4.862,0.948c-0.652,0.448-0.978,1.029-0.978,1.742
		c0,0.612,0.285,1.132,0.856,1.56c0.775,0.571,3.45,1.376,8.027,2.416c4.576,1.039,7.771,2.313,9.586,3.821
		c1.793,1.529,2.689,3.659,2.689,6.391c0,2.977-1.243,5.534-3.729,7.675c-2.488,2.141-6.167,3.21-11.038,3.21
		c-4.424,0-7.924-0.896-10.503-2.69C93.003,169.426,91.318,166.989,90.523,163.911"/>
	<path clip-path="url(#SVGID_7_)" fill="#00ADEE" d="M134.797,150.61L127,149.204c0.876-3.139,2.385-5.463,4.525-6.971
		c2.14-1.509,5.32-2.263,9.539-2.263c3.833,0,6.686,0.453,8.562,1.36c1.875,0.907,3.194,2.059,3.96,3.455
		c0.764,1.396,1.146,3.96,1.146,7.689l-0.092,10.029c0,2.854,0.137,4.958,0.412,6.313c0.275,1.356,0.79,2.809,1.545,4.357h-8.5
		c-0.225-0.57-0.5-1.417-0.825-2.538c-0.144-0.509-0.245-0.846-0.307-1.009c-1.468,1.427-3.038,2.497-4.709,3.211
		c-1.671,0.713-3.455,1.069-5.351,1.069c-3.343,0-5.978-0.906-7.904-2.72c-1.926-1.815-2.889-4.108-2.889-6.881
		c0-1.834,0.438-3.47,1.315-4.907c0.876-1.438,2.104-2.538,3.683-3.302c1.58-0.765,3.857-1.433,6.834-2.003
		c4.016-0.754,6.799-1.457,8.348-2.11v-0.855c0-1.65-0.408-2.828-1.223-3.532c-0.816-0.704-2.354-1.055-4.617-1.055
		c-1.529,0-2.721,0.301-3.578,0.902C136.021,148.048,135.326,149.102,134.797,150.61 M146.293,157.582
		c-1.101,0.367-2.844,0.806-5.229,1.314c-2.385,0.51-3.944,1.01-4.678,1.498c-1.121,0.796-1.682,1.805-1.682,3.027
		c0,1.203,0.447,2.243,1.346,3.119c0.896,0.876,2.037,1.314,3.424,1.314c1.549,0,3.027-0.509,4.434-1.528
		c1.039-0.774,1.723-1.722,2.049-2.844c0.224-0.734,0.336-2.131,0.336-4.189V157.582z"/>
	<path clip-path="url(#SVGID_7_)" fill="#00ADEE" d="M162.835,173.176v-44.824h8.592v16.144c2.649-3.016,5.788-4.524,9.417-4.524
		c3.955,0,7.227,1.432,9.814,4.296c2.589,2.863,3.884,6.977,3.884,12.337c0,5.545-1.319,9.815-3.96,12.812
		c-2.64,2.996-5.845,4.494-9.615,4.494c-1.855,0-3.686-0.464-5.488-1.391c-1.805-0.927-3.359-2.298-4.664-4.112v4.77H162.835z
		 M171.365,156.236c0,3.363,0.53,5.851,1.59,7.461c1.488,2.283,3.465,3.425,5.932,3.425c1.896,0,3.512-0.811,4.847-2.431
		c1.335-1.621,2.003-4.174,2.003-7.66c0-3.709-0.673-6.385-2.018-8.025c-1.346-1.641-3.068-2.462-5.168-2.462
		c-2.059,0-3.771,0.801-5.137,2.4C172.049,150.545,171.365,152.976,171.365,156.236"/>
	<rect x="201.452" y="128.352" clip-path="url(#SVGID_7_)" fill="#00ADEE" width="8.592" height="44.824"/>
	<path clip-path="url(#SVGID_7_)" fill="#00ADEE" d="M237.654,162.841l8.561,1.438c-1.101,3.139-2.838,5.529-5.213,7.17
		s-5.346,2.461-8.913,2.461c-5.646,0-9.825-1.844-12.536-5.534c-2.141-2.955-3.211-6.686-3.211-11.19
		c0-5.382,1.406-9.596,4.221-12.644c2.812-3.047,6.369-4.569,10.67-4.569c4.832,0,8.643,1.594,11.436,4.784
		s4.128,8.077,4.006,14.661h-21.525c0.061,2.548,0.754,4.53,2.079,5.946c1.325,1.417,2.976,2.125,4.953,2.125
		c1.345,0,2.477-0.366,3.394-1.102C236.492,165.654,237.185,164.472,237.654,162.841 M238.143,154.157
		c-0.061-2.486-0.703-4.377-1.926-5.672c-1.223-1.294-2.711-1.941-4.465-1.941c-1.875,0-3.424,0.684-4.646,2.049
		c-1.223,1.366-1.824,3.221-1.805,5.564H238.143z"/>
</g>
<text transform="matrix(1 0 0 1 58.6997 189.6631)"><tspan x="0" y="0" fill="#808184" font-family="'MyriadPro-Regular'" font-size="11.9602">c</tspan><tspan x="5.287" y="0" fill="#808184" font-family="'MyriadPro-Regular'" font-size="11.9602">o</tspan><tspan x="11.853" y="0" fill="#808184" font-family="'MyriadPro-Regular'" font-size="11.9602">n</tspan><tspan x="18.455" y="0" fill="#808184" font-family="'MyriadPro-Regular'" font-size="11.9602">t</tspan><tspan x="22.354" y="0" fill="#808184" font-family="'MyriadPro-Regular'" font-size="11.9602">e</tspan><tspan x="28.345" y="0" fill="#808184" font-family="'MyriadPro-Regular'" font-size="11.9602">n</tspan><tspan x="34.947" y="0" fill="#808184" font-family="'MyriadPro-Regular'" font-size="11.9602">t dis</tspan><tspan x="55.722" y="0" fill="#808184" font-family="'MyriadPro-Regular'" font-size="11.9602">c</tspan><tspan x="61.008" y="0" fill="#808184" font-family="'MyriadPro-Regular'" font-size="11.9602">o</tspan><tspan x="67.491" y="0" fill="#808184" font-family="'MyriadPro-Regular'" font-size="11.9602">v</tspan><tspan x="73.135" y="0" fill="#808184" font-family="'MyriadPro-Regular'" font-size="11.9602">e</tspan><tspan x="79.127" y="0" fill="#808184" font-family="'MyriadPro-Regular'" font-size="11.9602">r</tspan><tspan x="83.337" y="0" fill="#808184" font-family="'MyriadPro-Regular'" font-size="11.9602">y made easy</tspan></text>
<g>
	<defs>
		<path id="SVGID_8_" d="M166.771,68.464c0,15.365-7.852,29.309-21,37.298l7.301,12.024c7.922-4.812,14.365-11.271,19.06-18.784
			c2.438-17.893-3.867-32.608-5.843-36.668C166.574,64.343,166.771,66.378,166.771,68.464"/>
	</defs>
	<clipPath id="SVGID_9_">
		<use xlink:href="#SVGID_8_"  overflow="visible"/>
	</clipPath>
	
		<linearGradient id="SVGID_10_" gradientUnits="userSpaceOnUse" x1="-350" y1="381.9883" x2="-349" y2="381.9883" gradientTransform="matrix(21.2006 -20.2649 20.2649 21.2006 -176.7012 -15085.5996)">
		<stop  offset="0" style="stop-color:#00ADEE"/>
		<stop  offset="0.1523" style="stop-color:#05AFEE"/>
		<stop  offset="0.3447" style="stop-color:#15B3EF"/>
		<stop  offset="0.5586" style="stop-color:#2FBBF1"/>
		<stop  offset="0.7864" style="stop-color:#53C6F3"/>
		<stop  offset="1" style="stop-color:#7BD2F6"/>
	</linearGradient>
	<polygon clip-path="url(#SVGID_9_)" fill="url(#SVGID_10_)" points="159.521,132.171 202.268,91.311 160.82,47.949 118.073,88.81 	
		"/>
</g>
</svg>
